<svg version="1.1" xmlns="http://www.w3.org/2000/svg" xmlns:xlink="http://www.w3.org/1999/xlink" width="110.60842" height="156.87357" viewBox="0,0,110.60842,156.87357"><defs><radialGradient cx="307.11574" cy="244.60012" r="42.41667" gradientUnits="userSpaceOnUse" id="color-1"><stop offset="0" stop-color="#00ff26" stop-opacity="0.06667"/><stop offset="1" stop-color="#00ff26" stop-opacity="0"/></radialGradient><radialGradient cx="330.03241" cy="233.18345" r="33.83333" gradientUnits="userSpaceOnUse" id="color-2"><stop offset="0" stop-color="#00a2ff" stop-opacity="0.10196"/><stop offset="1" stop-color="#00a2ff" stop-opacity="0"/></radialGradient></defs><g transform="translate(-264.69907,-130.14321)"><g stroke="none" stroke-miterlimit="10"><path d="M264.69907,244.60012c0,-23.42608 18.99059,-42.41666 42.41667,-42.41666c23.42608,0 42.41667,18.99058 42.41667,42.41666c0,23.42608 -18.99059,42.41666 -42.41667,42.41666c-23.42608,0 -42.41667,-18.99058 -42.41667,-42.41666z" fill="url(#color-1)" stroke-width="0"/><path d="M296.19908,233.18345c0,-18.68563 15.1477,-33.83333 33.83333,-33.83333c18.68563,0 33.83333,15.14769 33.83333,33.83333c0,18.68563 -15.1477,33.83332 -33.83333,33.83332c-18.68563,0 -33.83333,-15.14769 -33.83333,-33.83332z" fill="url(#color-2)" stroke-width="0"/><g stroke-width="0"><path d="M275.73726,240.92594l23.80457,-4.41554l34.34022,6.65841l-7.29808,8.92762z" fill="#acff99"/><path d="M333.49723,243.22724l6.29519,-3.19998l28.31763,6.84724l2.78058,6.34424z" fill="#ff3767"/><path d="M306.17775,235.05955l15.70912,-1.77139l22.66182,2.67118l-4.81616,3.58152z" fill="#a4f9ff"/><path d="M282.83058,234.44946l14.18408,-0.86665l13.31763,1.29168l-10.21943,1.56646z" fill="#9738ff"/></g><path d="M290.86632,190.27833c-1.53863,0.15886 -2.63331,0.15649 -3.93804,1.36601c-0.97034,0.89953 -1.42598,2.23622 -2.00402,3.42642c-0.25043,0.51564 -0.33256,1.09746 -0.47813,1.65191c-1.52014,5.78982 6.11216,3.12725 7.64087,-0.11632c0.20782,-0.44095 0.31359,-0.89808 0.34467,-1.35966c-0.53828,-0.22731 -1.12609,-0.72376 -1.12609,-1.80802c0,-0.62835 0.19741,-1.05928 0.46819,-1.35483c-0.04121,-0.10222 -0.08306,-0.20308 -0.12514,-0.30239l-0.15726,0.07143c0,0 -0.6831,-0.6831 -0.62504,-1.57455zM293.11152,188.41551c0.70562,0.1063 1.20826,0.60894 1.20826,0.60894l1.04274,1.27143c0.07353,0.19171 0.1452,0.38528 0.2143,0.58048c2.35335,-0.5227 4.64834,-0.54475 7.12775,-0.14113c-0.00214,-0.62286 0.00392,-1.17438 0.00272,-1.61345l-0.19482,-2.31703c0,0 -0.16609,-1.99309 1.827,-2.15918c1.99309,-0.16609 2.15918,1.827 2.15918,1.827l0.20518,2.48297c-0.0055,1.8433 0.39678,3.66521 0.59315,5.49803c0.03558,0.33213 0.06198,0.67166 0.05533,1.00828c0.7477,-0.35065 1.91924,-0.28536 2.33161,-0.37825c2.53013,-0.5699 4.80889,-0.9548 7.34802,-1.03109c-0.15271,-1.10582 -0.38263,-2.1986 -0.49917,-2.88507l-0.09131,0.1806c0,0 -1.1094,-1.6641 0.5547,-2.7735c1.6641,-1.1094 2.7735,0.5547 2.7735,0.5547l0.70869,1.3806c0.36066,2.19952 1.03161,5.88081 0.29942,8.03225c-0.00195,0.00574 -3.24954,4.07459 -3.34341,4.18604c-2.28895,2.71757 -4.47785,5.21991 -6.45714,8.06984c2.05379,0.47109 3.95977,1.30867 6.09648,1.92306c6.31026,1.81445 13.48445,2.49668 19.40152,5.40261c-0.18672,-5.77907 -1.16966,-11.45524 -1.16966,-17.285l0.72734,-2.30225c0,0 0.15582,-0.41551 0.51638,-0.78169c0.11013,-0.11994 0.24321,-0.23727 0.40291,-0.35c1.63394,-1.15337 2.7873,0.48057 2.7873,0.48057c2.11831,3.01129 4.11108,5.37949 6.93921,7.62082c2.40515,-3.95587 4.79551,-8.06992 6.838,-12.16188l0.78885,-1.10557c0,0 1.2,-1.6 2.8,-0.4c1.6,1.2 0.4,2.8 0.4,2.8l-0.41115,0.49443c-0.46856,0.93563 -0.95441,1.87228 -1.45386,2.80798c0.07679,0.01661 0.15358,0.03323 0.23037,0.04984l1.65391,1.06736c0.51344,-0.14197 1.05413,-0.27139 1.62295,-0.38734c0,0 1.15148,-0.20936 1.8529,0.57307c0.46636,-0.20533 0.90487,-0.20533 0.90487,-0.20533l1.14278,0.14305c3.00002,1.21482 5.68344,1.58899 8.48066,3.33865c0.81929,0.51247 1.95253,0.65564 2.51558,1.44103c1.52518,2.12745 1.2418,4.21511 1.24266,6.54739c-5.56541,20.0391 -24.53883,8.61009 -25.90119,-1.76345c-0.12797,0.20931 -0.25589,0.41815 -0.38372,0.62649c-0.09869,0.22301 -0.25353,0.45203 -0.48255,0.68105c-0.40276,0.40276 -0.80552,0.57611 -1.17561,0.61806c-0.36974,0.04492 -0.8017,-0.03044 -1.2868,-0.32896c-0.28726,-0.17678 -0.49627,-0.37219 -0.64524,-0.57492l-0.72599,-0.74315c-2.06164,-1.59498 -3.73983,-3.2251 -5.29663,-5.04631c0.27125,5.37599 1.10719,10.65736 1.11605,16.06106c0,0 0,0.58433 -0.31584,1.1213c-0.46255,1.43083 -2.08316,1.26877 -2.08316,1.26877l-2.35689,-0.26888c-1.54802,-0.75694 -3.16754,-1.36994 -4.82893,-1.89395c0.06541,2.88869 0.34701,5.7164 0.94326,8.56711c0.24724,1.18208 0.74676,2.32601 0.87003,3.52234c0.79285,-1.11013 2.59438,-1.86207 3.51214,-2.67036l0.07406,-0.02677l-0.01467,-0.01956l1.58384,-1.18788c0.33699,-0.25849 0.75863,-0.41212 1.21616,-0.41212c1.10457,0 2,0.89543 2,2c0,0.07633 -0.00428,0.15167 -0.0126,0.22578l-0.19732,1.97323l-0.11289,-0.01129c0.07623,0.66888 0.12202,1.33988 0.12282,2.01228v1.2c0,0 0,2 -2,2c-2,0 -2,-2 -2,-2v-1.09496c-1.80916,1.4344 -4.23554,3.11425 -5.44911,2.84389c-1.96402,-0.43755 -2.72065,-3.94014 -3.09739,-5.48942c-1.00606,-4.13721 -1.42853,-8.29362 -1.45245,-12.53778c-3.33682,-0.81503 -6.74376,-1.45686 -10.00035,-2.33437c-2.44759,4.28056 -5.38394,8.26789 -7.60001,12.68294c-1.67361,3.33432 -2.56547,7.95844 -5.31552,10.66916c-2.57206,2.53529 -4.613,1.78875 -7.69296,2.42168l-1.50716,0.37912c0,0 -1.94029,0.48507 -2.42536,-1.45521l0.00002,0.00002c-0.48507,-1.94029 1.45521,-2.42536 1.45521,-2.42536l1.69284,-0.42088c1.55834,-0.30462 4.40282,0.17605 5.50704,-1.17832c2.28535,-2.80306 3.10344,-6.55772 4.68448,-9.73084c2.12547,-4.26577 4.92802,-8.12894 7.32851,-12.23186c-1.58377,-0.59293 -3.15404,-1.12684 -4.9278,-1.09781c0,0 -1.70977,0 -1.9676,-1.58086c-0.60862,-0.97386 0.06429,-2.06734 0.06429,-2.06734c1.99332,-3.23837 4.0932,-6.03051 6.60332,-8.87468c0.80772,-0.91521 2.74609,-2.53192 3.71624,-3.85975c-2.60931,0.0726 -5.41327,0.38629 -7.81595,1.21553c-0.98077,0.33849 -1.84179,1.67619 -2.81741,1.32312c-1.88154,-0.68093 -2.65532,-3.17942 -2.97089,-5.76997c-0.12695,-0.00944 -0.20423,-0.02489 -0.20423,-0.02489c-2.22147,-0.45651 -4.23697,-0.50764 -6.30634,-0.03124c0.04408,1.1782 -0.14044,2.36027 -0.68284,3.5024c-1.87113,3.94003 -7.70325,7.11806 -11.78395,5.41544c-5.92827,-2.47351 -3.88429,-11.32327 0.14266,-14.85343c2.67321,-2.34342 3.62156,-2.09347 6.73986,-2.57423c0,0 1.9799,-0.28284 2.26274,1.69706c0.02353,0.1647 0.0314,0.31766 0.02605,0.45969zM360.40059,202.4221c-0.29718,0.14066 -0.53725,0.18431 -0.53725,0.18431c-17.87785,2.64942 6.02908,26.91074 11.46055,7.36214c0.00042,-0.69544 0.10961,-2.85482 -0.35734,-3.45261c-0.32548,-0.41667 -1.02387,-0.29928 -1.48442,-0.55897c-2.62907,-1.48245 -5.08847,-1.94076 -7.91934,-3.06135l0.34278,0.14305c0,0 -0.9127,0 -1.50498,-0.61657z" fill="#ffffff" stroke-width="0.5"/><path d="M283.4055,185.60294c-2.29605,1.32193 -4.72909,2.5215 -6.80199,4.16047c-1.08829,0.86048 -2.19096,2.14967 -3.3346,3.39706c1.98589,1.10973 5.98232,-1.71502 7.78051,-1.79146c0.13193,-0.03601 0.26438,-0.05795 0.39575,-0.06671c0.24889,-0.01659 0.4939,0.01409 0.72419,0.08586c1.11378,-0.67049 2.79859,-2.43149 2.97373,-3.66643c0.09376,-0.6611 -0.23913,-1.71017 -0.58779,-2.79107c-0.36247,0.21547 -0.74551,0.4395 -1.1498,0.67227zM269.81523,196.23464c-0.20256,0.15784 -0.43907,0.27905 -0.70227,0.35088c-1.06557,0.29089 -2.16521,-0.33712 -2.4561,-1.4027c-0.11252,-0.41218 -0.08755,-0.82946 0.04705,-1.20304c0.19071,-0.91304 0.71775,-1.84696 1.49131,-2.77647c-0.86465,-2.52969 -0.68955,-5.53247 1.27307,-8.61984c2.80694,-4.41554 17.43345,-7.8648 18.39871,-2.03155c2.36339,-0.48354 3.02916,0.05557 0.1809,2.12736c0.3021,0.64134 0.53634,1.31872 0.72146,1.95036c0.46575,1.58913 0.64922,2.92811 0.62118,4.04972c2.05389,0.91104 4.81111,4.08626 6.36708,6.78415c0.67628,0.0905 1.27654,0.52528 1.56234,1.16815c0.23612,0.35428 0.32072,0.83884 0.1833,1.53303c-0.7085,3.57941 -4.34968,5.16768 -7.40565,5.52712c0.1286,0.74759 -0.22814,0.98751 -0.87992,0.85448c-0.23447,0.22777 -0.52819,0.40115 -0.86585,0.49333c-1.06557,0.29089 -2.16521,-0.33712 -2.4561,-1.4027c-0.05622,-0.20595 -0.07812,-0.41318 -0.06915,-0.6156c-0.12357,-0.15085 -0.1705,-0.32091 -0.12569,-0.5069c-1.81912,-1.43376 -3.78668,-3.42582 -5.02854,-5.35711c-2.82141,1.87476 -6.87411,0.8671 -9.69619,-1.7438c-0.3809,0.31322 -0.76758,0.59185 -1.1609,0.82112zM272.16616,185.99985c-0.21305,0.58499 -0.19087,1.2 -0.13428,1.81854c3.24565,-2.29194 7.40872,-4.34244 10.90241,-5.70598c-3.90737,-0.53258 -8.97612,-1.03312 -10.76814,3.88746zM288.52041,200.50359c0.74953,-0.47219 1.46335,-1.04003 1.99094,-1.67736c0.34161,-0.41265 0.89994,-0.91379 1.49984,-1.36631c-1.54515,-1.48303 -3.02321,-3.50234 -3.95309,-4.8964c-0.0425,-0.01418 -0.0845,-0.02978 -0.12587,-0.04673c-1.05062,1.02991 -2.5009,1.39143 -3.77512,1.35088c1.66531,2.03174 3.35524,4.92631 4.36329,6.63593z" fill="#ffffff" stroke-width="0.5"/><g fill="#ffffff" stroke-width="0.5"><path d="M370.50556,156.1794c-2,0 -2,-2.18459 -2,-2.18459l0.03884,-0.22694c-0.13478,-0.73632 -0.26955,-1.47264 -0.40433,-2.20896c-0.7325,-4.53821 -1.63519,-14.83746 -5.54852,-17.68945c-0.81062,-0.59077 -1.46701,1.42912 -2.32148,1.94087c-3.62908,2.17347 -12.81661,8.3116 -16.46304,8.56962c-2.89758,0.20503 -9.45122,-7.36621 -16.52839,-6.80793c-3.23556,1.1035 -8.99459,5.95191 -11.96532,5.93673c-4.02218,-0.02055 -11.4781,-4.16595 -15.20137,-6.02729c-2.0448,-1.02224 -8.16191,-4.04696 -6.27067,-2.71802c2.33786,1.64279 5.02715,10.84086 6.27177,13.70853c0,0 0.85617,1.9743 -0.9513,2.90949c-1.80748,0.93519 -2.66365,-1.03911 -2.66365,-1.03911c-15.41375,-35.57398 4.56328,-13.89354 18.79972,-11.20277c0.76075,0.14379 9.4598,-5.27051 11.23468,-5.86007c5.41711,-0.4773 9.83371,0.21906 14.46125,3.5902c1.15543,0.84172 1.70433,3.66229 3.01037,3.14635c16.83694,-6.65136 23.02128,-20.4676 28.06695,10.7347c0.13189,0.72008 0.26378,1.44015 0.39567,2.16023l0.03884,1.08381c0,0 0,2.18459 -2,2.18459z"/><path d="M307.32373,160.55632c-0.02341,-0.00707 -0.04654,-0.01423 -0.06939,-0.02145c-0.94885,0.40432 -1.90938,0.87628 -2.7358,1.70774c-10.70047,10.76559 -0.33279,15.9682 9.56193,15.91397c4.4349,-0.0243 9.23461,-5.93181 8.18505,-10.28566c-0.73189,-3.03604 -5.82491,-5.25826 -7.01672,-7.58469c-3.81851,-0.66141 -7.17808,0.49589 -7.92507,0.2701zM316.33304,181.35307c-12.23994,2.93097 -25.21254,-6.54203 -16.37116,-18.90588c0.56442,-0.78929 6.32265,-6.99873 9.11839,-6.75166c3.11417,-0.56088 7.59097,0.16397 9.66505,1.6683c6.67521,2.3696 11.96933,20.54543 -2.41229,23.98924z"/><path d="M315.13827,167.31846c2.51447,1.27621 3.91395,5.3323 3.37672,8.76011c-0.5318,3.39313 -2.96134,6.17061 -8.08565,5.02668c-11.82455,-2.63966 -4.29512,-18.35676 4.70893,-13.78679z"/><path d="M342.97674,163.78763c-0.02341,-0.00707 -0.04654,-0.01423 -0.06939,-0.02145c-0.94885,0.40432 -1.90938,0.87628 -2.7358,1.70774c-10.70047,10.76559 -0.33279,15.9682 9.56193,15.91397c4.4349,-0.0243 9.23461,-5.93181 8.18505,-10.28566c-0.73189,-3.03604 -5.82491,-5.25826 -7.01672,-7.58469c-3.81851,-0.66141 -7.17808,0.49589 -7.92507,0.2701zM351.98605,184.58439c-12.23994,2.93097 -25.21254,-6.54203 -16.37116,-18.90588c0.56442,-0.78929 6.32265,-6.99873 9.11839,-6.75166c3.11417,-0.56088 7.59097,0.16397 9.66505,1.6683c6.67521,2.3696 11.96933,20.54543 -2.41229,23.98924z"/><path d="M350.79127,170.54978c2.51447,1.27621 3.91395,5.3323 3.37672,8.76011c-0.5318,3.39313 -2.96134,6.17061 -8.08565,5.02668c-11.82455,-2.63966 -4.29512,-18.35676 4.70893,-13.78679z"/><path d="M284.11452,171.23524c0.14931,-1.47619 1.6255,-1.32688 1.6255,-1.32688l0.48473,0.07255c2.82089,-0.21286 5.79868,-0.24952 8.60456,0.0913c0,0 1.47232,0.18359 1.28873,1.65592c-0.18359,1.47232 -1.65592,1.28873 -1.65592,1.28873c-2.59468,-0.33334 -5.39837,-0.28403 -8.00891,-0.07728l-1.01183,-0.07882c0,0 -1.47619,-0.14931 -1.32688,-1.6255z"/><path d="M289.26529,179.37412c-0.1624,-1.4748 1.31242,-1.63721 1.31242,-1.63721l0.83476,-0.08716c0.70878,-0.02116 1.41754,-0.0423 2.12631,-0.06346c0,0 1.48307,-0.04428 1.52734,1.43879c0.04428,1.48307 -1.43879,1.52734 -1.43879,1.52734c-0.70878,0.02116 -1.41754,0.0423 -2.12631,0.06346l-0.5985,0.07065c0,0 -1.4748,0.1624 -1.63721,-1.31242z"/><g><path d="M372.3119,184.25373c-0.37827,1.33516 -1.71341,0.95688 -1.71341,0.95688l-0.44505,-0.12608c-2.87162,-0.81804 -5.82186,-1.34297 -8.80813,-1.13719c0,0 -1.3846,0.09283 -1.47741,-1.29176c-0.09283,-1.3846 1.29176,-1.47741 1.29176,-1.47741c3.31311,-0.21658 6.56201,0.33729 9.75032,1.23607l0.44505,0.12608c0,0 1.33516,0.37827 0.95688,1.71341z"/><path d="M367.11218,193.05529c-1.21158,0.67662 -1.88817,-0.53495 -1.88817,-0.53495l0.0406,0.0379c-1.47098,-1.99089 -4.24743,-3.04543 -6.21544,-4.60083c0,0 -1.08695,-0.86269 -0.22428,-1.94964c0.86269,-1.08695 1.94964,-0.22428 1.94964,-0.22428c2.23297,1.78073 4.87016,2.85645 6.67251,5.06016l0.20008,0.32346c0,0 0.67662,1.21158 -0.53495,1.88817z"/></g></g></g></g></svg>