<svg version="1.1" xmlns="http://www.w3.org/2000/svg" xmlns:xlink="http://www.w3.org/1999/xlink" width="129.66666" height="167.89655" viewBox="0,0,129.66666,167.89655"><defs><radialGradient cx="293.28243" cy="231.43345" r="28.75" gradientUnits="userSpaceOnUse" id="color-1"><stop offset="0" stop-color="#b866ff" stop-opacity="0.11765"/><stop offset="1" stop-color="#b866ff" stop-opacity="0"/></radialGradient><radialGradient cx="354.36577" cy="244.51678" r="39.83333" gradientUnits="userSpaceOnUse" id="color-2"><stop offset="0" stop-color="#ff3285" stop-opacity="0.11765"/><stop offset="1" stop-color="#ff3285" stop-opacity="0"/></radialGradient></defs><g transform="translate(-264.53243,-116.45356)"><g stroke="none" stroke-miterlimit="10"><g stroke-width="0"><path d="" fill="#5dff38"/><path d="" fill="#ff3767"/><path d="" fill="#38f1ff"/><path d="" fill="#9738ff"/></g><path d="" fill="#ffffff" stroke-width="0.5"/><path d="" fill="#ffffff" stroke-width="0.5"/><path d="" fill="#ffffff" stroke-width="0.5"/><path d="" fill="#ffffff" stroke-width="0.5"/><path d="" fill="#ffffff" stroke-width="0.5"/><path d="" fill="#ffffff" stroke-width="0.5"/><path d="" fill="#ffffff" stroke-width="0.5"/><path d="" fill="#ffffff" stroke-width="0.5"/><path d="" fill="#ffffff" stroke-width="0.5"/><path d="" fill="#ffffff" stroke-width="0.5"/><path d="" fill="#ffffff" stroke-width="0.5"/><g fill="#ffffff" stroke-width="0.5"><path d=""/><path d=""/></g><path d="M264.53243,260.18345v-57.5h57.5v57.5z" fill="url(#color-1)" stroke-width="0"/><path d="M314.53243,284.35011v-79.66667h79.66667v79.66667z" fill="url(#color-2)" stroke-width="0"/><path d="M275.73726,240.92592l23.80457,-4.41554l34.34022,6.65841l-7.29808,8.92762z" fill="#5dff38" stroke-width="0"/><path d="M333.49724,243.22722l6.29519,-3.19998l28.31763,6.84724l2.78058,6.34424z" fill="#ff7696" stroke-width="0"/><path d="M306.17776,235.05954l15.70912,-1.77139l22.66182,2.67118l-4.81616,3.58152z" fill="#38f1ff" stroke-width="0"/><path d="M282.83059,234.44944l14.18408,-0.86665l13.31763,1.29168l-10.21943,1.56646z" fill="#a653ff" stroke-width="0"/><path d="M366.75182,157.99136c-1.91741,0.11254 -1.53099,-1.88392 -1.53099,-1.88392l0.16774,-0.83282c0.40787,-3.5513 1.03266,-7.13895 1.2856,-10.67272c0.08654,-1.20906 0.06421,-4.32386 -0.99948,-5.01314c-0.80238,-0.51995 -2.19807,0.45203 -3.2326,0.38543c-2.05675,-0.13241 -3.76648,-0.2597 -5.92048,-0.13328c-2.84237,0.16683 -12.58675,2.74549 -14.3838,2.00983c-2.23954,-0.9168 -0.94903,-4.86812 -3.98231,-5.81017c-6.97628,-2.16662 -17.73697,1.57144 -22.40065,-2.74051c-3.55616,-2.6048 -6.28301,-5.50276 -9.35233,-8.59307c-1.83933,-1.85192 -3.38918,-3.37527 -4.11912,-4.22439c-0.05061,0.51793 -0.23467,1.18799 -0.30172,1.60865c-0.79355,4.97852 -0.31925,9.76589 -0.80314,14.71568c0,0 -0.19371,1.97535 -2.14005,2.28598c-1.94634,0.31064 -1.75263,-1.66472 -1.75263,-1.66472c3.35345,-34.08636 5.63572,-19.04804 21.35632,-7.48413c3.69046,3.40204 13.40604,0.25833 19.4276,1.67207c2.98735,0.70136 6.57962,1.77525 6.81837,5.4881c0.021,0.32669 -0.89631,1.13191 -0.56882,0.9714c4.0982,-2.00874 8.43518,-1.96118 12.9751,-2.22765c2.26783,-0.13311 4.18545,-0.02198 6.34944,0.13346c1.10878,0.07964 3.6376,-0.53747 4.43701,-0.06472c4.89575,2.89516 1.80976,13.35652 1.19341,18.80202l-0.21867,1.16363c0,0 -0.38642,1.99646 -2.30382,2.109z" fill="#ffffff" stroke-width="0.5"/><path d="M299.21022,197.72575c0,0 -0.02173,0.07725 -0.07293,0.19581c-0.04646,0.12033 -0.08528,0.19121 -0.08528,0.19121l-1.16213,1.98018c-1.06914,1.10247 -2.22742,2.12766 -3.4232,3.10516c-3.46977,1.52966 -4.70065,1.20859 -8.26934,0.29167c-17.81954,-4.57849 3.49671,-29.91417 12.23297,-15.81328c2.87324,-1.79037 5.49041,-3.80226 8.29899,-5.68887c-0.03219,-1.03081 0.03635,-2.07615 0.23224,-3.15129c0,0 0.36155,-1.87211 2.32857,-1.52468c1.96702,0.34742 1.60548,2.21953 1.60548,2.21953c-0.61181,2.9413 0.60065,5.13198 0.99581,7.97348c0.04405,0.31675 -0.45701,0.60837 -0.33079,0.90455c0.087,0.20413 0.32859,-0.32479 0.53988,-0.41393c1.56248,-0.65909 2.56558,-0.80396 4.21063,-1.1671l1.0243,-0.59279c0,0 0.29143,-0.14768 0.70065,-0.21014c0.00029,-0.00102 0.00057,-0.00204 0.00085,-0.00306l0.54185,-1.77538c0,0 0.55823,-1.82749 2.47872,-1.29287c1.92049,0.5346 1.36225,2.36209 1.36225,2.36209l-0.51896,1.69739c-1.37793,4.87576 -2.978,9.7613 -4.99808,14.42941c-1.03008,2.38036 -1.88647,4.98831 -2.98541,7.30358c-0.23533,0.49581 -0.53273,0.99469 -0.752,1.50717c9.50605,2.32433 19.1481,1.64847 28.82533,0.32846c-1.82715,-3.78725 -1.99692,-7.40447 -3.01211,-11.52979c-0.87755,-3.56604 -1.62565,-7.14109 -1.86443,-10.81939c0,0 -0.12021,-1.90083 1.87614,-2.01201c0.65484,-0.03648 1.10781,0.14354 1.4209,0.40193c0.59025,0.22324 0.95329,0.6791 0.95329,0.6791c1.43257,1.81052 3.04883,3.27614 4.74401,4.78192c0.79541,-1.24723 1.41562,-2.52717 2.35967,-3.77706c1.24244,-1.64495 2.95451,-3.20753 4.26473,-4.86194l1.18353,-1.55222c0,0 1.17398,-1.53958 2.79314,-0.41925c1.61914,1.12034 0.44516,2.65993 0.44516,2.65993l-1.20487,1.57995c-0.34849,0.44003 -0.72376,0.87215 -1.11034,1.30027c0.27191,0.27259 0.40561,0.53834 0.40561,0.53834c0.9472,1.88437 1.44182,3.394 3.27849,4.58573l0.06747,0.09618c0.13955,-0.00112 0.28755,0.01408 0.44392,0.04973c15.41342,-13.07962 31.82354,19.6766 9.6664,19.52442c-6.24058,-0.12771 -12.40953,-2.81021 -13.48213,-9.12669l-0.00504,-1.24621c-0.00019,-0.01249 -0.00008,-0.01912 -0.00008,-0.01912c0.04113,-2.28247 0.16864,-4.17478 0.83883,-6.2886c-1.9934,-1.47141 -2.93044,-3.02941 -3.96998,-5.05697c-0.12771,0.1564 -0.25205,0.31352 -0.37227,0.47151c-1.33715,1.7573 -2.13743,3.68161 -3.5733,5.42583c-0.14496,0.24778 -0.37697,0.49037 -0.73226,0.70726c-0.05717,0.0349 -0.11365,0.06677 -0.16942,0.09576c-0.27879,0.15032 -0.63779,0.2722 -1.04606,0.24455c-0.40847,-0.02468 -0.7476,-0.19128 -1.00332,-0.37586c-0.0513,-0.03585 -0.10291,-0.07464 -0.15479,-0.11652c-0.29264,-0.23627 -0.4817,-0.48058 -0.59616,-0.72115c-0.89246,-0.79848 -1.76633,-1.57054 -2.6136,-2.35862c0.30369,1.59377 0.67104,3.17633 1.05427,4.75919c0.99496,4.10958 1.04783,7.74614 3.11436,11.50363l0.35652,1.55722c0,0 0.24939,1.58725 -1.23974,2.0631c-0.08061,0.12439 -0.17549,0.23172 -0.27752,0.32419c-0.11006,-0.01296 -0.21817,-0.02058 -0.32405,-0.02243c-3.0139,-0.05208 -5.44531,0.36966 -8.00205,1.44205c-6.00595,0.59005 -11.98483,0.75972 -17.92893,0.02937c-0.63296,-1.82601 -3.35468,-1.46912 -5.36533,-0.91885c-0.79953,-0.17772 -1.59838,-0.37449 -2.39654,-0.59146l-0.39857,-0.13173c-0.61975,-0.10654 -0.99193,-0.42219 -1.2154,-0.76643c-0.27001,-0.33048 -0.45431,-0.79214 -0.31782,-1.41281c0.30055,-3.91164 2.7534,-7.64292 4.32341,-11.29197c1.30403,-3.03083 2.4378,-6.15296 3.44183,-9.30452c-2.33013,0.64304 -5.57653,2.1334 -7.7214,0.58765c-0.85072,-0.61309 -0.61637,-1.94428 -0.93086,-2.9146c-0.23083,-0.71221 -0.44013,-1.41634 -0.61929,-2.11736c-2.55749,1.78036 -5.02727,3.61688 -7.74762,5.2335c0.21744,2.22893 0.20929,3.9705 -0.41676,6.25496zM359.17509,202.12419c0.60821,4.35924 5.43775,5.81836 9.59273,5.87622c15.10464,0.48502 2.25855,-23.0027 -7.96272,-12.04555c0,0 -0.41276,0.42689 -1.0304,0.59173c-0.49548,1.64648 -0.53048,3.11578 -0.56125,4.93915c0,0.00001 0,0.00002 0,0.00002c0,0 -0.00042,0.0241 -0.00402,0.06682zM295.56743,191.08869l-0.12016,0.26951c0,0 -0.59039,-0.77696 -0.35534,-1.62633c-4.40757,-8.2538 -18.65091,7.31785 -7.89012,10.07341c2.45309,0.62817 2.82157,1.29103 5.06749,0.20721c0.93704,-0.78762 1.83057,-1.62447 2.67564,-2.50133l0.44211,-0.91916c0.56562,-2.02582 0.42886,-3.34614 0.1804,-5.50333z" fill="#ffffff" stroke-width="0.5"/><path d="M299.21022,197.72575c0,0 -0.02173,0.07725 -0.07293,0.19581c-0.04646,0.12033 -0.08528,0.19121 -0.08528,0.19121l-1.16213,1.98018c-1.06914,1.10247 -2.22742,2.12766 -3.4232,3.10516c-3.46977,1.52966 -4.70065,1.20859 -8.26934,0.29167c-17.81954,-4.57849 3.49671,-29.91417 12.23297,-15.81328c2.87324,-1.79037 5.49041,-3.80226 8.29899,-5.68887c-0.03219,-1.03081 0.03635,-2.07615 0.23224,-3.15129c0,0 0.36155,-1.87211 2.32857,-1.52468c1.96702,0.34742 1.60548,2.21953 1.60548,2.21953c-0.61181,2.9413 0.60065,5.13198 0.99581,7.97348c0.04405,0.31675 -0.45701,0.60837 -0.33079,0.90455c0.087,0.20413 0.32859,-0.32479 0.53988,-0.41393c1.56248,-0.65909 2.56558,-0.80396 4.21063,-1.1671l1.0243,-0.59279c0,0 0.29143,-0.14768 0.70065,-0.21014c0.00029,-0.00102 0.00057,-0.00204 0.00085,-0.00306l0.54185,-1.77538c0,0 0.55823,-1.82749 2.47872,-1.29287c1.92049,0.5346 1.36225,2.36209 1.36225,2.36209l-0.51896,1.69739c-1.37793,4.87576 -2.978,9.7613 -4.99808,14.42941c-1.03008,2.38036 -1.88647,4.98831 -2.98541,7.30358c-0.23533,0.49581 -0.53273,0.99469 -0.752,1.50717c9.50605,2.32433 19.1481,1.64847 28.82533,0.32846c-1.82715,-3.78725 -1.99692,-7.40447 -3.01211,-11.52979c-0.87755,-3.56604 -1.62565,-7.14109 -1.86443,-10.81939c0,0 -0.12021,-1.90083 1.87614,-2.01201c0.65484,-0.03648 1.10781,0.14354 1.4209,0.40193c0.59025,0.22324 0.95329,0.6791 0.95329,0.6791c1.43257,1.81052 3.04883,3.27614 4.74401,4.78192c0.79541,-1.24723 1.41562,-2.52717 2.35967,-3.77706c1.24244,-1.64495 2.95451,-3.20753 4.26473,-4.86194l1.18353,-1.55222c0,0 1.17398,-1.53958 2.79314,-0.41925c1.61914,1.12034 0.44516,2.65993 0.44516,2.65993l-1.20487,1.57995c-0.34849,0.44003 -0.72376,0.87215 -1.11034,1.30027c0.27191,0.27259 0.40561,0.53834 0.40561,0.53834c0.9472,1.88437 1.44182,3.394 3.27849,4.58573l0.06747,0.09618c0.13955,-0.00112 0.28755,0.01408 0.44392,0.04973c15.41342,-13.07962 31.82354,19.6766 9.6664,19.52442c-6.24058,-0.12771 -12.40953,-2.81021 -13.48213,-9.12669l-0.00504,-1.24621c-0.00019,-0.01249 -0.00008,-0.01912 -0.00008,-0.01912c0.04113,-2.28247 0.16864,-4.17478 0.83883,-6.2886c-1.9934,-1.47141 -2.93044,-3.02941 -3.96998,-5.05697c-0.12771,0.1564 -0.25205,0.31352 -0.37227,0.47151c-1.33715,1.7573 -2.13743,3.68161 -3.5733,5.42583c-0.14496,0.24778 -0.37697,0.49037 -0.73226,0.70726c-0.05717,0.0349 -0.11365,0.06677 -0.16942,0.09576c-0.27879,0.15032 -0.63779,0.2722 -1.04606,0.24455c-0.40847,-0.02468 -0.7476,-0.19128 -1.00332,-0.37586c-0.0513,-0.03585 -0.10291,-0.07464 -0.15479,-0.11652c-0.29264,-0.23627 -0.4817,-0.48058 -0.59616,-0.72115c-0.89246,-0.79848 -1.76633,-1.57054 -2.6136,-2.35862c0.30369,1.59377 0.67104,3.17633 1.05427,4.75919c0.99496,4.10958 1.04783,7.74614 3.11436,11.50363l0.35652,1.55722c0,0 0.24939,1.58725 -1.23974,2.0631c-0.08061,0.12439 -0.17549,0.23172 -0.27752,0.32419c-0.11006,-0.01296 -0.21817,-0.02058 -0.32405,-0.02243c-3.0139,-0.05208 -5.44531,0.36966 -8.00205,1.44205c-6.00595,0.59005 -11.98483,0.75972 -17.92893,0.02937c-0.63296,-1.82601 -3.35468,-1.46912 -5.36533,-0.91885c-0.79953,-0.17772 -1.59838,-0.37449 -2.39654,-0.59146l-0.39857,-0.13173c-0.61975,-0.10654 -0.99193,-0.42219 -1.2154,-0.76643c-0.27001,-0.33048 -0.45431,-0.79214 -0.31782,-1.41281c0.30055,-3.91164 2.7534,-7.64292 4.32341,-11.29197c1.30403,-3.03083 2.4378,-6.15296 3.44183,-9.30452c-2.33013,0.64304 -5.57653,2.1334 -7.7214,0.58765c-0.85072,-0.61309 -0.61637,-1.94428 -0.93086,-2.9146c-0.23083,-0.71221 -0.44013,-1.41634 -0.61929,-2.11736c-2.55749,1.78036 -5.02727,3.61688 -7.74762,5.2335c0.21744,2.22893 0.20929,3.9705 -0.41676,6.25496zM359.17509,202.12419c0.60821,4.35924 5.43775,5.81836 9.59273,5.87622c15.10464,0.48502 2.25855,-23.0027 -7.96272,-12.04555c0,0 -0.41276,0.42689 -1.0304,0.59173c-0.49548,1.64648 -0.53048,3.11578 -0.56125,4.93915c0,0.00001 0,0.00002 0,0.00002c0,0 -0.00042,0.0241 -0.00402,0.06682zM295.56743,191.08869l-0.12016,0.26951c0,0 -0.59039,-0.77696 -0.35534,-1.62633c-4.40757,-8.2538 -18.65091,7.31785 -7.89012,10.07341c2.45309,0.62817 2.82157,1.29103 5.06749,0.20721c0.93704,-0.78762 1.83057,-1.62447 2.67564,-2.50133l0.44211,-0.91916c0.56562,-2.02582 0.42886,-3.34614 0.1804,-5.50333z" fill="#ffffff" stroke-width="0.5"/><path d="M299.21022,197.72575c0,0 -0.02173,0.07725 -0.07293,0.19581c-0.04646,0.12033 -0.08528,0.19121 -0.08528,0.19121l-1.16213,1.98018c-1.06914,1.10247 -2.22742,2.12766 -3.4232,3.10516c-3.46977,1.52966 -4.70065,1.20859 -8.26934,0.29167c-17.81954,-4.57849 3.49671,-29.91417 12.23297,-15.81328c2.87324,-1.79037 5.49041,-3.80226 8.29899,-5.68887c-0.03219,-1.03081 0.03635,-2.07615 0.23224,-3.15129c0,0 0.36155,-1.87211 2.32857,-1.52468c1.96702,0.34742 1.60548,2.21953 1.60548,2.21953c-0.61181,2.9413 0.60065,5.13198 0.99581,7.97348c0.04405,0.31675 -0.45701,0.60837 -0.33079,0.90455c0.087,0.20413 0.32859,-0.32479 0.53988,-0.41393c1.56248,-0.65909 2.56558,-0.80396 4.21063,-1.1671l1.0243,-0.59279c0,0 0.29143,-0.14768 0.70065,-0.21014c0.00029,-0.00102 0.00057,-0.00204 0.00085,-0.00306l0.54185,-1.77538c0,0 0.55823,-1.82749 2.47872,-1.29287c1.92049,0.5346 1.36225,2.36209 1.36225,2.36209l-0.51896,1.69739c-1.37793,4.87576 -2.978,9.7613 -4.99808,14.42941c-1.03008,2.38036 -1.88647,4.98831 -2.98541,7.30358c-0.23533,0.49581 -0.53273,0.99469 -0.752,1.50717c9.50605,2.32433 19.1481,1.64847 28.82533,0.32846c-1.82715,-3.78725 -1.99692,-7.40447 -3.01211,-11.52979c-0.87755,-3.56604 -1.62565,-7.14109 -1.86443,-10.81939c0,0 -0.12021,-1.90083 1.87614,-2.01201c0.65484,-0.03648 1.10781,0.14354 1.4209,0.40193c0.59025,0.22324 0.95329,0.6791 0.95329,0.6791c1.43257,1.81052 3.04883,3.27614 4.74401,4.78192c0.79541,-1.24723 1.41562,-2.52717 2.35967,-3.77706c1.24244,-1.64495 2.95451,-3.20753 4.26473,-4.86194l1.18353,-1.55222c0,0 1.17398,-1.53958 2.79314,-0.41925c1.61914,1.12034 0.44516,2.65993 0.44516,2.65993l-1.20487,1.57995c-0.34849,0.44003 -0.72376,0.87215 -1.11034,1.30027c0.27191,0.27259 0.40561,0.53834 0.40561,0.53834c0.9472,1.88437 1.44182,3.394 3.27849,4.58573l0.06747,0.09618c0.13955,-0.00112 0.28755,0.01408 0.44392,0.04973c15.41342,-13.07962 31.82354,19.6766 9.6664,19.52442c-6.24058,-0.12771 -12.40953,-2.81021 -13.48213,-9.12669l-0.00504,-1.24621c-0.00019,-0.01249 -0.00008,-0.01912 -0.00008,-0.01912c0.04113,-2.28247 0.16864,-4.17478 0.83883,-6.2886c-1.9934,-1.47141 -2.93044,-3.02941 -3.96998,-5.05697c-0.12771,0.1564 -0.25205,0.31352 -0.37227,0.47151c-1.33715,1.7573 -2.13743,3.68161 -3.5733,5.42583c-0.14496,0.24778 -0.37697,0.49037 -0.73226,0.70726c-0.05717,0.0349 -0.11365,0.06677 -0.16942,0.09576c-0.27879,0.15032 -0.63779,0.2722 -1.04606,0.24455c-0.40847,-0.02468 -0.7476,-0.19128 -1.00332,-0.37586c-0.0513,-0.03585 -0.10291,-0.07464 -0.15479,-0.11652c-0.29264,-0.23627 -0.4817,-0.48058 -0.59616,-0.72115c-0.89246,-0.79848 -1.76633,-1.57054 -2.6136,-2.35862c0.30369,1.59377 0.67104,3.17633 1.05427,4.75919c0.99496,4.10958 1.04783,7.74614 3.11436,11.50363l0.35652,1.55722c0,0 0.24939,1.58725 -1.23974,2.0631c-0.08061,0.12439 -0.17549,0.23172 -0.27752,0.32419c-0.11006,-0.01296 -0.21817,-0.02058 -0.32405,-0.02243c-3.0139,-0.05208 -5.44531,0.36966 -8.00205,1.44205c-6.00595,0.59005 -11.98483,0.75972 -17.92893,0.02937c-0.63296,-1.82601 -3.35468,-1.46912 -5.36533,-0.91885c-0.79953,-0.17772 -1.59838,-0.37449 -2.39654,-0.59146l-0.39857,-0.13173c-0.61975,-0.10654 -0.99193,-0.42219 -1.2154,-0.76643c-0.27001,-0.33048 -0.45431,-0.79214 -0.31782,-1.41281c0.30055,-3.91164 2.7534,-7.64292 4.32341,-11.29197c1.30403,-3.03083 2.4378,-6.15296 3.44183,-9.30452c-2.33013,0.64304 -5.57653,2.1334 -7.7214,0.58765c-0.85072,-0.61309 -0.61637,-1.94428 -0.93086,-2.9146c-0.23083,-0.71221 -0.44013,-1.41634 -0.61929,-2.11736c-2.55749,1.78036 -5.02727,3.61688 -7.74762,5.2335c0.21744,2.22893 0.20929,3.9705 -0.41676,6.25496zM359.17509,202.12419c0.60821,4.35924 5.43775,5.81836 9.59273,5.87622c15.10464,0.48502 2.25855,-23.0027 -7.96272,-12.04555c0,0 -0.41276,0.42689 -1.0304,0.59173c-0.49548,1.64648 -0.53048,3.11578 -0.56125,4.93915c0,0.00001 0,0.00002 0,0.00002c0,0 -0.00042,0.0241 -0.00402,0.06682zM295.56743,191.08869l-0.12016,0.26951c0,0 -0.59039,-0.77696 -0.35534,-1.62633c-4.40757,-8.2538 -18.65091,7.31785 -7.89012,10.07341c2.45309,0.62817 2.82157,1.29103 5.06749,0.20721c0.93704,-0.78762 1.83057,-1.62447 2.67564,-2.50133l0.44211,-0.91916c0.56562,-2.02582 0.42886,-3.34614 0.1804,-5.50333z" fill="#ffffff" stroke-width="0.5"/><path d="M317.55469,217.23982c-0.07597,0.10796 -0.13137,0.16863 -0.13137,0.16863l-1.3688,1.49908c-4.48308,4.90939 -9.10108,9.81826 -14.04774,14.25879c-1.59246,1.42954 -2.94173,3.25479 -5.5326,3.00805c-1.68231,-0.16022 -2.73459,-1.9835 -4.14026,-2.9196c0,0 -1.6607,-1.11215 -0.54642,-2.76669c1.11429,-1.65455 2.77499,-0.54242 2.77499,-0.54242c0.65857,0.4432 1.38295,0.80209 1.97572,1.3296c0.28505,0.25366 0.23954,0.86615 0.60734,0.96906c0.41499,0.11611 3.30525,-2.99785 3.67707,-3.33761c4.26172,-3.89435 8.24662,-8.27408 12.14314,-12.54223c1.7537,-0.33523 4.11326,-0.45266 4.68974,0.90094c-0.03361,-0.0085 -0.06721,-0.01704 -0.10081,-0.02561z" fill="#ffffff" stroke-width="0.5"/><path d="M342.22314,215.15436c-0.73751,0.14772 -1.47485,0.29192 -2.21207,0.43167c0.09755,0.35098 0.08434,0.63264 0.08434,0.63264c-0.32575,6.12598 2.93257,12.80485 5.00612,18.46322c0.58722,1.60242 1.36502,4.07661 1.71642,5.75306c0.06157,0.29373 -0.44568,0.77966 -0.15261,0.88802c0.33826,0.12506 0.52614,-0.52737 0.87651,-0.62039c0.95649,-0.25391 3.48067,-0.311 4.54619,-0.35475l1.60856,0.65183c0,0 1.46751,1.28806 0.10891,2.69053c-0.77721,0.80229 -1.59005,0.7241 -2.14342,0.51026c-1.94329,0.21281 -5.91378,1.0002 -6.94819,0.45426c-2.37728,-1.25469 -2.60214,-6.58275 -3.39488,-8.72064c-2.22707,-6.00598 -5.35527,-12.90485 -5.23266,-19.42806c2.00515,-0.91527 4.0767,-1.31274 6.4524,-1.44805c-0.18583,0.07041 -0.3156,0.09642 -0.3156,0.09642z" fill="#ffffff" stroke-width="0.5"/><path d="M279.84846,189.17536c-1.81763,1.83212 -3.80169,3.59004 -5.31427,5.65046c-0.79411,1.08174 -1.47845,2.55844 -2.21406,4.00821c2.22141,0.47043 5.23415,-3.19631 6.934,-3.7566c0.11596,-0.06884 0.23646,-0.12497 0.35973,-0.16881c0.23355,-0.08302 0.477,-0.12189 0.7182,-0.11926c0.87327,-0.91542 1.97906,-2.98128 1.79087,-4.15546c-0.10075,-0.62859 -0.72186,-1.49463 -1.3672,-2.38542c-0.28498,0.29541 -0.58721,0.60427 -0.90725,0.92687zM269.89901,202.58022c-0.14847,0.19923 -0.34002,0.37431 -0.57135,0.51164c-0.93652,0.55602 -2.17047,0.2832 -2.7561,-0.60937c-0.22653,-0.34525 -0.32288,-0.73267 -0.30166,-1.11015c-0.08052,-0.88483 0.155,-1.88043 0.62785,-2.93929c-1.55699,-2.07148 -2.25471,-4.85811 -1.26514,-8.20957c1.41527,-4.79324 14.42694,-11.92957 17.03234,-6.87233c2.12373,-1.08581 2.91661,-0.7757 0.78632,1.89104c0.47411,0.50256 0.89363,1.05651 1.25293,1.58213c0.90396,1.32241 1.46554,2.49366 1.76191,3.52435c2.22926,0.27064 5.78455,2.41461 8.05199,4.45091c0.67365,-0.10195 1.37373,0.13086 1.83268,0.63925c0.32819,0.25872 0.54885,0.67762 0.61733,1.3483c0.35314,3.4581 -2.67578,5.90014 -5.49845,7.06169c0.33859,0.64681 0.06613,0.96296 -0.59631,1.01944c-0.15888,0.27172 -0.39017,0.50998 -0.68693,0.68618c-0.93652,0.55602 -2.17047,0.2832 -2.7561,-0.60937c-0.11319,-0.17251 -0.19388,-0.35555 -0.24363,-0.54263c-0.1618,-0.10389 -0.25575,-0.24619 -0.26645,-0.42807c-2.15512,-0.81149 -4.61327,-2.09169 -6.359,-3.51445c-2.16137,2.47968 -6.33246,2.6662 -9.7872,1.05466c-0.27447,0.38961 -0.56444,0.74923 -0.87498,1.06566zM269.20054,192.60358c-0.03542,0.59168 0.16306,1.1466 0.3955,1.69535c2.44737,-2.97594 5.84281,-5.98197 8.79525,-8.17878c-3.89502,0.58019 -8.89288,1.50645 -9.19077,6.48344zM289.04058,201.37103c0.58164,-0.63517 1.1015,-1.34784 1.42304,-2.07309c0.20819,-0.46958 0.59839,-1.07899 1.04242,-1.65541c-1.90696,-0.93117 -3.90424,-2.36977 -5.19641,-3.38764c-0.04478,-0.00134 -0.08949,-0.0041 -0.13401,-0.00829c-0.70921,1.22601 -1.99374,1.9514 -3.22557,2.26205c2.18017,1.39887 4.63256,3.57802 6.09053,4.86238z" fill="#ffffff" stroke-width="0.5"/><path d="M279.84846,189.17536c-1.81763,1.83212 -3.80169,3.59004 -5.31427,5.65046c-0.79411,1.08174 -1.47845,2.55844 -2.21406,4.00821c2.22141,0.47043 5.23415,-3.19631 6.934,-3.7566c0.11596,-0.06884 0.23646,-0.12497 0.35973,-0.16881c0.23355,-0.08302 0.477,-0.12189 0.7182,-0.11926c0.87327,-0.91542 1.97906,-2.98128 1.79087,-4.15546c-0.10075,-0.62859 -0.72186,-1.49463 -1.3672,-2.38542c-0.28498,0.29541 -0.58721,0.60427 -0.90725,0.92687zM269.89901,202.58022c-0.14847,0.19923 -0.34002,0.37431 -0.57135,0.51164c-0.93652,0.55602 -2.17047,0.2832 -2.7561,-0.60937c-0.22653,-0.34525 -0.32288,-0.73267 -0.30166,-1.11015c-0.08052,-0.88483 0.155,-1.88043 0.62785,-2.93929c-1.55699,-2.07148 -2.25471,-4.85811 -1.26514,-8.20957c1.41527,-4.79324 14.42694,-11.92957 17.03234,-6.87233c2.12373,-1.08581 2.91661,-0.7757 0.78632,1.89104c0.47411,0.50256 0.89363,1.05651 1.25293,1.58213c0.90396,1.32241 1.46554,2.49366 1.76191,3.52435c2.22926,0.27064 5.78455,2.41461 8.05199,4.45091c0.67365,-0.10195 1.37373,0.13086 1.83268,0.63925c0.32819,0.25872 0.54885,0.67762 0.61733,1.3483c0.35314,3.4581 -2.67578,5.90014 -5.49845,7.06169c0.33859,0.64681 0.06613,0.96296 -0.59631,1.01944c-0.15888,0.27172 -0.39017,0.50998 -0.68693,0.68618c-0.93652,0.55602 -2.17047,0.2832 -2.7561,-0.60937c-0.11319,-0.17251 -0.19388,-0.35555 -0.24363,-0.54263c-0.1618,-0.10389 -0.25575,-0.24619 -0.26645,-0.42807c-2.15512,-0.81149 -4.61327,-2.09169 -6.359,-3.51445c-2.16137,2.47968 -6.33246,2.6662 -9.7872,1.05466c-0.27447,0.38961 -0.56444,0.74923 -0.87498,1.06566zM269.20054,192.60358c-0.03542,0.59168 0.16306,1.1466 0.3955,1.69535c2.44737,-2.97594 5.84281,-5.98197 8.79525,-8.17878c-3.89502,0.58019 -8.89288,1.50645 -9.19077,6.48344zM289.04058,201.37103c0.58164,-0.63517 1.1015,-1.34784 1.42304,-2.07309c0.20819,-0.46958 0.59839,-1.07899 1.04242,-1.65541c-1.90696,-0.93117 -3.90424,-2.36977 -5.19641,-3.38764c-0.04478,-0.00134 -0.08949,-0.0041 -0.13401,-0.00829c-0.70921,1.22601 -1.99374,1.9514 -3.22557,2.26205c2.18017,1.39887 4.63256,3.57802 6.09053,4.86238z" fill="#ffffff" stroke-width="0.5"/><path d="M279.84846,189.17536c-1.81763,1.83212 -3.80169,3.59004 -5.31427,5.65046c-0.79411,1.08174 -1.47845,2.55844 -2.21406,4.00821c2.22141,0.47043 5.23415,-3.19631 6.934,-3.7566c0.11596,-0.06884 0.23646,-0.12497 0.35973,-0.16881c0.23355,-0.08302 0.477,-0.12189 0.7182,-0.11926c0.87327,-0.91542 1.97906,-2.98128 1.79087,-4.15546c-0.10075,-0.62859 -0.72186,-1.49463 -1.3672,-2.38542c-0.28498,0.29541 -0.58721,0.60427 -0.90725,0.92687zM269.89901,202.58022c-0.14847,0.19923 -0.34002,0.37431 -0.57135,0.51164c-0.93652,0.55602 -2.17047,0.2832 -2.7561,-0.60937c-0.22653,-0.34525 -0.32288,-0.73267 -0.30166,-1.11015c-0.08052,-0.88483 0.155,-1.88043 0.62785,-2.93929c-1.55699,-2.07148 -2.25471,-4.85811 -1.26514,-8.20957c1.41527,-4.79324 14.42694,-11.92957 17.03234,-6.87233c2.12373,-1.08581 2.91661,-0.7757 0.78632,1.89104c0.47411,0.50256 0.89363,1.05651 1.25293,1.58213c0.90396,1.32241 1.46554,2.49366 1.76191,3.52435c2.22926,0.27064 5.78455,2.41461 8.05199,4.45091c0.67365,-0.10195 1.37373,0.13086 1.83268,0.63925c0.32819,0.25872 0.54885,0.67762 0.61733,1.3483c0.35314,3.4581 -2.67578,5.90014 -5.49845,7.06169c0.33859,0.64681 0.06613,0.96296 -0.59631,1.01944c-0.15888,0.27172 -0.39017,0.50998 -0.68693,0.68618c-0.93652,0.55602 -2.17047,0.2832 -2.7561,-0.60937c-0.11319,-0.17251 -0.19388,-0.35555 -0.24363,-0.54263c-0.1618,-0.10389 -0.25575,-0.24619 -0.26645,-0.42807c-2.15512,-0.81149 -4.61327,-2.09169 -6.359,-3.51445c-2.16137,2.47968 -6.33246,2.6662 -9.7872,1.05466c-0.27447,0.38961 -0.56444,0.74923 -0.87498,1.06566zM269.20054,192.60358c-0.03542,0.59168 0.16306,1.1466 0.3955,1.69535c2.44737,-2.97594 5.84281,-5.98197 8.79525,-8.17878c-3.89502,0.58019 -8.89288,1.50645 -9.19077,6.48344zM289.04058,201.37103c0.58164,-0.63517 1.1015,-1.34784 1.42304,-2.07309c0.20819,-0.46958 0.59839,-1.07899 1.04242,-1.65541c-1.90696,-0.93117 -3.90424,-2.36977 -5.19641,-3.38764c-0.04478,-0.00134 -0.08949,-0.0041 -0.13401,-0.00829c-0.70921,1.22601 -1.99374,1.9514 -3.22557,2.26205c2.18017,1.39887 4.63256,3.57802 6.09053,4.86238z" fill="#ffffff" stroke-width="0.5"/><path d="M279.84846,189.17536c-1.81763,1.83212 -3.80169,3.59004 -5.31427,5.65046c-0.79411,1.08174 -1.47845,2.55844 -2.21406,4.00821c2.22141,0.47043 5.23415,-3.19631 6.934,-3.7566c0.11596,-0.06884 0.23646,-0.12497 0.35973,-0.16881c0.23355,-0.08302 0.477,-0.12189 0.7182,-0.11926c0.87327,-0.91542 1.97906,-2.98128 1.79087,-4.15546c-0.10075,-0.62859 -0.72186,-1.49463 -1.3672,-2.38542c-0.28498,0.29541 -0.58721,0.60427 -0.90725,0.92687zM269.89901,202.58022c-0.14847,0.19923 -0.34002,0.37431 -0.57135,0.51164c-0.93652,0.55602 -2.17047,0.2832 -2.7561,-0.60937c-0.22653,-0.34525 -0.32288,-0.73267 -0.30166,-1.11015c-0.08052,-0.88483 0.155,-1.88043 0.62785,-2.93929c-1.55699,-2.07148 -2.25471,-4.85811 -1.26514,-8.20957c1.41527,-4.79324 14.42694,-11.92957 17.03234,-6.87233c2.12373,-1.08581 2.91661,-0.7757 0.78632,1.89104c0.47411,0.50256 0.89363,1.05651 1.25293,1.58213c0.90396,1.32241 1.46554,2.49366 1.76191,3.52435c2.22926,0.27064 5.78455,2.41461 8.05199,4.45091c0.67365,-0.10195 1.37373,0.13086 1.83268,0.63925c0.32819,0.25872 0.54885,0.67762 0.61733,1.3483c0.35314,3.4581 -2.67578,5.90014 -5.49845,7.06169c0.33859,0.64681 0.06613,0.96296 -0.59631,1.01944c-0.15888,0.27172 -0.39017,0.50998 -0.68693,0.68618c-0.93652,0.55602 -2.17047,0.2832 -2.7561,-0.60937c-0.11319,-0.17251 -0.19388,-0.35555 -0.24363,-0.54263c-0.1618,-0.10389 -0.25575,-0.24619 -0.26645,-0.42807c-2.15512,-0.81149 -4.61327,-2.09169 -6.359,-3.51445c-2.16137,2.47968 -6.33246,2.6662 -9.7872,1.05466c-0.27447,0.38961 -0.56444,0.74923 -0.87498,1.06566zM269.20054,192.60358c-0.03542,0.59168 0.16306,1.1466 0.3955,1.69535c2.44737,-2.97594 5.84281,-5.98197 8.79525,-8.17878c-3.89502,0.58019 -8.89288,1.50645 -9.19077,6.48344zM289.04058,201.37103c0.58164,-0.63517 1.1015,-1.34784 1.42304,-2.07309c0.20819,-0.46958 0.59839,-1.07899 1.04242,-1.65541c-1.90696,-0.93117 -3.90424,-2.36977 -5.19641,-3.38764c-0.04478,-0.00134 -0.08949,-0.0041 -0.13401,-0.00829c-0.70921,1.22601 -1.99374,1.9514 -3.22557,2.26205c2.18017,1.39887 4.63256,3.57802 6.09053,4.86238z" fill="#ffffff" stroke-width="0.5"/><path d="M281.99454,173.83357c0.55105,-1.37761 1.92865,-0.82655 1.92865,-0.82655l0.44585,0.20356c2.77003,0.5742 5.64221,1.36106 8.24494,2.46326c0,0 1.36441,0.58293 0.78148,1.94735c-0.58293,1.36441 -1.94735,0.78148 -1.94735,0.78148c-2.40182,-1.03672 -5.11016,-1.76336 -7.67631,-2.28536l-0.95074,-0.3551c0,0 -1.37761,-0.55105 -0.82655,-1.92865z" fill="#ffffff" stroke-width="0.5"/><path d="M288.84272,183.67641c-0.69134,-1.3128 0.62146,-2.00416 0.62146,-2.00416l0.74481,-0.38688c0.65176,-0.27932 1.30351,-0.55862 1.95526,-0.83794c0,0 1.36376,-0.58446 1.94822,0.7793c0.58446,1.36376 -0.7793,1.94822 -0.7793,1.94822c-0.65176,0.27932 -1.30351,0.55862 -1.95526,0.83794l-0.53102,0.28498c0,0 -1.3128,0.69134 -2.00416,-0.62146z" fill="#ffffff" stroke-width="0.5"/><path d="M372.34741,179.07768c-0.22137,1.36992 -1.59129,1.14856 -1.59129,1.14856l-0.45664,-0.07379c-2.94694,-0.48054 -5.93808,-0.66087 -8.88054,-0.11121c0,0 -1.36457,0.25228 -1.61685,-1.11228c-0.25228,-1.36457 1.11228,-1.61685 1.11228,-1.61685c3.26585,-0.59817 6.55699,-0.42364 9.82783,0.10049l0.45664,0.07379c0,0 1.36992,0.22137 1.14856,1.59129z" fill="#ffffff" stroke-width="0.5"/><path d="M368.20016,188.42138c-1.12521,0.81215 -1.93736,-0.31306 -1.93736,-0.31306l0.04471,0.03296c-1.69129,-1.80748 -4.57104,-2.53394 -6.7057,-3.85138c0,0 -1.1794,-0.73124 -0.44817,-1.91064c0.73124,-1.1794 1.91064,-0.44817 1.91064,-0.44817c2.42387,1.51063 5.16775,2.27423 7.21279,4.25477l0.23614,0.29816c0,0 0.81215,1.12521 -0.31306,1.93736z" fill="#ffffff" stroke-width="0.5"/><path d="M294.2519,170.96835c-0.9092,-1.89737 1.81841,-2.52982 1.81841,-2.52982l1.40465,-0.3257c3.48835,-0.79155 5.82882,-2.33277 9.22014,-3.22055c1.12938,-0.29565 4.70459,0.08679 3.60169,-0.2538c-5.04369,-1.55756 -10.23678,-4.41961 -13.68953,-7.38395c0,0 -1.7961,-1.56174 0.44902,-2.81113c2.24512,-1.24939 4.04121,0.31235 4.04121,0.31235c3.06776,2.71064 7.64712,3.8419 11.09672,6.24449c1.34556,0.93716 3.52446,1.66921 3.77502,2.98221c0.25833,1.35371 -1.05971,2.78055 -2.49797,3.70999c-1.18534,0.76599 -3.16568,0.50631 -4.66935,0.9217c-3.41237,0.94266 -5.93188,2.44938 -9.50855,3.29343l-1.40465,0.3257c0,0 -2.72761,0.63246 -3.63682,-1.26491z" fill="#ffffff" stroke-width="0.5"/><path d="M348.76832,177.7443c-1.17227,1.78885 -3.51679,0.89443 -3.51679,0.89443l-1.94251,-0.75293c-3.35071,-1.62849 -6.38174,-3.3575 -9.2966,-5.40242c-1.17695,-0.82569 -2.97717,-1.29159 -3.60606,-2.41316c-0.67623,-1.206 -0.71857,-2.76033 0.04645,-3.93503c0.7522,-1.15501 2.67411,-1.5788 4.03955,-2.33909c4.15366,-2.31277 8.96307,-3.63862 13.38533,-5.61014c0,0 2.2642,-1.00774 3.58497,0.71982c1.32078,1.72756 -0.94342,2.7353 -0.94342,2.7353c-5.05314,2.24557 -10.62471,3.85026 -15.44424,6.38154c-0.84827,0.44552 1.61414,0.97613 2.4166,1.46858c2.85861,1.75425 5.49691,3.49931 8.63201,5.01995l1.47246,0.54987c0,0 2.34452,0.89443 1.17227,2.68328z" fill="#ffffff" stroke-width="0.5"/></g></g></svg>