<svg version="1.1" xmlns="http://www.w3.org/2000/svg" xmlns:xlink="http://www.w3.org/1999/xlink" width="104.57143" height="22.49162" viewBox="0,0,104.57143,22.49162"><g transform="translate(-315.89456,-169.29412)"><g stroke="none" stroke-miterlimit="10"><path d="M318.52344,191.78575l-2.62889,-22.49162h101.94254l2.62889,22.49162z" fill="#ff2a8c" stroke-width="0"/><path d="M326.04838,171.42742c5.29294,-2.27648 11.3117,4.01876 6.80966,10.12589c-1.03169,1.3995 -3.76526,2.53662 -6.06693,2.66137c-0.01762,0.19803 -0.03849,0.39238 -0.06279,0.58243c-0.04249,0.33239 -0.15392,0.67969 -0.31793,1.02829c0.01123,0.15867 0.00804,0.32295 -0.01073,0.49168c-0.17091,1.53639 -1.56826,2.85878 -3.12105,2.95363c-0.15781,0.00964 -0.31114,0.00624 -0.4591,-0.00928c-1.2515,0.48989 -2.26273,0.12373 -2.03444,-1.92855c-0.03071,-0.21349 -0.03457,-0.43864 -0.00859,-0.67229c0.02248,-0.20209 0.06619,-0.40048 0.12866,-0.59286c0.45219,-2.21778 0.59882,-4.47445 0.83633,-6.67663c0.69611,-6.45405 1.80381,-7.99931 2.81144,-7.06244c0.48514,-0.38471 0.98695,-0.68253 1.49545,-0.90124zM328.74885,178.04254c0.18447,-1.65828 -1.11032,-1.38634 -2.43465,-1.09513c0.10549,0.53302 0.19846,1.08899 0.27657,1.65666c1.12555,-0.1331 2.10598,-0.09321 2.15808,-0.56152z" fill="#000000" stroke-width="0.5"/><path d="M341.33065,183.7397c3.73559,-0.83534 0.48421,-9.30789 4.17144,-11.48117c5.5329,-3.26113 4.35617,13.43223 -0.9787,16.07951c-11.72915,5.82027 -11.3243,-13.52043 -7.9839,-15.48929c0.58029,-0.84981 1.54356,-1.45496 2.57548,-1.518c1.5528,-0.09486 2.67304,1.07374 2.50213,2.61013c-0.06991,0.62845 -0.34503,1.22109 -0.75203,1.70856c0.50602,3.6247 0.28647,8.13031 0.4656,8.09025z" fill="#000000" stroke-width="0.5"/><path d="M369.18625,170.72926c1.19437,0.75736 1.76256,1.76508 1.95471,2.93465c0.43207,2.62995 -1.03736,6.07822 -1.56439,9.33818c-0.30799,1.90506 5.12058,0.46485 4.79102,2.37003c-0.39625,2.29071 -9.4498,4.56605 -10.51493,1.89286c-0.41689,-1.04628 -0.46131,-2.18676 -0.2985,-3.37952c-0.21279,0.87968 -0.5448,1.68873 -1.00969,2.37952c-1.48729,2.21001 -8.40714,4.38189 -9.95125,2.14581c-0.43806,0.34184 -0.93177,0.53276 -1.48532,0.53276c-2.99189,0 -0.5576,-16.66929 2.04885,-16.81272c0.43525,-0.25403 0.9276,-0.40157 1.4289,-0.40157c0.01329,0 0.02654,0.0001 0.03976,0.00031c0.12114,-0.08948 0.24182,-0.17265 0.36196,-0.24968c5.28355,-3.38727 9.56004,5.10689 8.76705,11.30911c0.56505,-2.52484 1.80289,-5.2191 2.25113,-7.71179c0.12698,-0.70615 0.05121,-2.72055 0.81318,-3.11679zM358.25988,183.92782c0.86976,-0.59886 -2.14426,-2.92892 -2.13038,-3.08053c0.12837,-1.40134 2.97482,-3.07519 2.06337,-3.98801c-0.45955,-0.46024 -1.61572,-0.39371 -2.6874,-0.34946c0.07543,2.43688 -0.14007,5.35768 -0.75214,7.75589c1.16158,-0.03148 2.49633,0.35767 3.50654,-0.33789z" fill="#000000" stroke-width="0.5"/><path d="M378.02232,179.87894c0.09545,-0.58951 0.2521,-2.29395 0.46166,-3.5668c-0.93767,-0.08981 -1.62948,-0.35831 -1.8288,-0.85855c-0.64212,-0.42206 -0.98721,-1.20052 -0.83317,-2.09103c0.2318,-1.34002 1.50601,-2.42631 2.84602,-2.42631c0.43481,0 0.82313,0.11437 1.14142,0.31468c3.4558,-0.92949 7.66227,-0.71333 7.13763,2.3196c-0.16821,0.97242 -2.23878,1.89365 -4.48423,2.39203c0.81527,2.62475 1.16161,6.26401 0.31323,8.51348c1.79184,1.25343 2.32075,3.30226 -0.59782,4.22208c-0.57638,0.18165 -2.53619,-0.30621 -3.18217,-0.22621c-0.50032,0.06196 -2.3954,0.58924 -2.67174,0.29672l-1.50895,-2.3733c0.61894,-1.13068 1.39615,-1.88719 2.23734,-2.35259c0.10859,-0.06008 0.21826,-0.11531 0.32878,-0.16587c0.27844,-1.35362 0.4206,-2.63811 0.64078,-3.99793z" fill="#000000" stroke-width="0.5"/><path d="M398.5987,173.40314c0.0224,0.1216 0.04095,0.23822 0.05584,0.35009c0.16452,0.37008 0.22097,0.80618 0.1402,1.27308c-0.2318,1.34002 -1.50601,2.42631 -2.84602,2.42631c-0.71302,0 -1.301,-0.30756 -1.66021,-0.79725c-0.72047,0.1804 -1.3046,0.56229 -1.52535,1.44899c-0.4927,1.979 7.85501,0.9481 5.3422,6.13777c-1.72845,3.56972 -10.34849,9.26924 -12.59664,4.29567c-3.50765,-7.75997 7.88774,-1.76922 7.31041,-4.68116c-0.38611,-1.94751 -5.78321,-0.62144 -5.26416,-4.64732c0.5853,-4.53973 8.77324,-12.70721 11.0031,-5.88847z" fill="#000000" stroke-width="0.5"/><path d="M407.92033,178.27178c0.47995,-2.69771 1.45443,-4.99893 3.04598,-5.82658c0.54576,-0.71513 1.40721,-1.19488 2.29772,-1.19488c1.34002,0 2.2384,1.0863 2.0066,2.42631c-0.01402,0.08104 -0.03185,0.16116 -0.05328,0.24016c-0.05552,0.91135 -0.54357,2.07377 -0.95425,3.96882c-0.59906,2.76432 -0.83639,8.1137 -2.4595,11.00668c-2.38442,4.24994 -4.08786,-0.13583 -4.2374,-5.48589c-0.95991,0.09283 -2.55719,0.64662 -3.43483,0.21707c-0.36982,1.76806 -0.81335,3.40534 -1.27043,4.66553c0.00087,0.1398 -0.01097,0.28376 -0.0364,0.43077c-0.12266,0.70912 -0.53724,1.34718 -1.09901,1.79082c-0.12343,0.13002 -0.24396,0.21378 -0.36023,0.24576c-0.42243,0.24654 -0.90027,0.38973 -1.38679,0.38973c-0.12599,0 -0.24808,-0.0096 -0.3657,-0.02812c-1.2665,0.12064 -2.49471,-0.19977 -1.65114,-2.3343c0.00312,-0.02123 0.00654,-0.04253 0.01023,-0.06389c0.02673,-0.15455 0.06734,-0.30573 0.1203,-0.45225c0.74443,-3.39896 1.56407,-17.57179 5.21587,-17.57179c1.79179,0 2.04869,3.82435 1.5862,8.13467c0.91387,-0.33141 2.00325,-0.5076 3.02602,-0.55863z" fill="#000000" stroke-width="0.5"/></g></g></svg>